@startuml
hide empty members

  class SpatialItemType {
    + id : integer
    + label : string
    + description : string [0..1]
    + updateDate : timestamp
  }

  class SpatialItem {
    + id : integer
    + objectid : integer
    + updateDate : timestamp
  }

  class SpatialItem2Location {
    + localizedName : string [0..1]
  }

  package "referential" #DDDDDD {

    class Status

    class ObjectType

    class Location
  }

  SpatialItemType "1" *-- "1..*" SpatialItem : type
  SpatialItemType "*" --> "1" Status : status
  SpatialItemType "*" --> "1" ObjectType : objectType

  SpatialItem "0..*" *-- "0..*" SpatialItem2Location : locations
  SpatialItem2Location "0..*" --> "1" Location


  enum SpatialItemTypeEnum #lightblue {
    DEPTH_GRADIENT = 1
    NEARBY_SPECIFIC_AREA = 2
    DISTANCE_TO_COAST_GRADIENT = 3
    GEAR = 5
    TAXON_GROUP = 4
    METIER = 8
  }

  SpatialItemTypeEnum .left.> SpatialItemType: "is an\n identifier of"

}

@enduml
