@startuml
hide empty members

class ActivityCalendar {
    +id : Integer
    +program : Program
    +year : Integer
    +directSurveyInvestigation : Boolean
    +comments : String [0..1]
    +controlDate : Timestamp [0..1]
    +validationDate : Timestamp [0..1]
    +qualificationDate : Timestamp [0..1]
    +qualificationComments : String [0..1]
    +creationDate : Timestamp
    +updateDate : Timestamp
}
class VesselUseFeatures {
  +id
  +startDate: Date
  +endDate: Date
  +isActive: Integer
  +basePortLocation: Location [0..1]
}
class GearUseFeatures {
  +id
  +startDate: Date
  +endDate: Date [0..1]
  +gear: Gear [0..1]
  +metier: Metier [0..1]
}

ActivityCalendar -up-> "1" QualityFlag
ActivityCalendar -up-> "1" Vessel

ActivityCalendar -right-> "1" Department: "recorderDepartment"
ActivityCalendar -right-> "0..1" Person: "recorderPerson"

ActivityCalendar "0..1" *-- "0..*" SurveyMeasurement
ActivityCalendar "0..1" *-- "0..*" VesselUseFeatures
ActivityCalendar "0..1" *-- "0..*" GearUseFeatures

VesselUseFeatures "0..1" *-- "0..*" FishingArea
GearUseFeatures "0..1" *-- "0..*" FishingArea

VesselUseFeatures "1" *-- "0..*" VesselUseMeasurement
GearUseFeatures "1" *-- "0..*" GearUseMeasurement

ActivityCalendar -left-> "0..*" Person: "observers"

@enduml
